<svg xmlns="http://www.w3.org/2000/svg" viewBox="-233.8 992.4 603.3 172.7" enable-background="new -233.8 992.4 603.3 172.7" width="196" height="56"><path fill="#fff" d="M369.5 1147.9c0 9.5-7.7 17.2-17.2 17.2h-568.9c-9.5 0-17.2-7.7-17.2-17.2v-138.3c0-9.5 7.7-17.2 17.2-17.2h568.9c9.5 0 17.2 7.7 17.2 17.2v138.3z"/><path d="M-101.5 1077.6c0-14.5 11.8-21.8 12.7-22.2-6.8-10-17.7-11.3-21.3-11.3-9.1-.9-17.7 5.4-22.2 5.4s-11.8-5.4-19-5c-9.5 0-18.6 5.9-23.6 14.5-10.4 17.7-2.7 44 7.3 58.5 5 7.3 10.9 15 18.1 14.5 7.3-.5 10-4.5 19-4.5 8.6 0 11.3 4.5 19 4.5s12.7-7.3 17.7-14.1c5.9-8.2 8.2-15.9 8.2-16.3-.5-.8-15.5-6.8-15.9-24zm-14.6-43c4.1-5 6.8-11.8 5.9-18.6-5.9.5-12.7 4.1-17.2 8.6-3.6 4.1-6.8 11.3-5.9 17.7 6.8.8 13.2-2.7 17.2-7.7zm121.1 96H-5.4l-5.4-17.7h-19.5l-5.4 17.7h-10l19.5-60.3h11.8L5 1130.6zm-17.2-24.8l-5-15.9c-.5-1.8-1.4-5.4-3.2-11.3-.5 2.7-1.4 6.3-2.7 11.3l-5 15.9h15.9zm67.5 2.6c0 7.3-1.8 13.1-5.9 17.7-3.6 3.6-8.2 5.9-13.1 5.9-5.9 0-10-2.3-12.2-6.3v23.1h-9.5v-46.7c0-4.5 0-9.5-.5-14.5h8.6l.5 6.8c3.2-5 8.2-7.7 14.5-7.7 5 0 9.5 1.8 12.7 5.9 3.1 3.6 4.9 9 4.9 15.8zm-10 .5c0-4.1-.9-7.7-2.7-10.4-2.3-2.7-5-4.1-8.6-4.1-2.3 0-4.5.9-6.3 2.3-1.8 1.8-3.2 3.6-3.6 6.3-.5 1.4-.5 2.3-.5 2.7v7.3c0 3.2.9 5.9 2.7 8.2 1.8 2.3 4.5 3.2 7.7 3.2 3.6 0 6.3-1.4 8.6-4.1 1.8-3.2 2.7-6.9 2.7-11.4zm59.9-.5c0 7.3-1.8 13.1-5.9 17.7-3.6 3.6-8.2 5.9-13.1 5.9-5.9 0-10-2.3-12.2-6.3v23.1h-9.5v-46.7c0-4.5 0-9.5-.5-14.5h8.6l.5 6.8c3.2-5 8.2-7.7 14.5-7.7 5 0 9.5 1.8 12.7 5.9 3.1 3.6 4.9 9 4.9 15.8zm-10 .5c0-4.1-.9-7.7-2.7-10.4-2.3-2.7-5-4.1-8.6-4.1-2.3 0-4.5.9-6.3 2.3-1.8 1.8-3.2 3.6-3.6 6.3-.5 1.4-.5 2.3-.5 2.7v7.3c0 3.2.9 5.9 2.7 8.2 1.8 2.3 4.5 3.2 7.7 3.2 3.6 0 6.3-1.4 8.6-4.1 1.8-3.2 2.7-6.9 2.7-11.4zm65.7 5c0 5-1.8 9.5-5.4 12.7-4.1 3.6-9.5 5.4-16.3 5.4-6.3 0-11.8-1.4-15.4-3.6l2.3-8.2c4.1 2.7 9.1 4.1 14.1 4.1 3.6 0 6.3-.9 8.6-2.3 1.8-1.8 3.2-3.6 3.2-6.8 0-2.3-.9-4.5-2.7-6.3s-4.5-3.2-8.2-4.5c-10.4-4.1-15.9-9.5-15.9-17.2 0-5 1.8-9.1 5.4-12.2 3.6-3.2 8.6-4.5 15-4.5 5.4 0 10 .9 13.6 2.7l-2.3 7.7c-3.6-1.8-7.3-2.7-11.3-2.7-3.6 0-5.9.9-8.2 2.7-1.8 1.4-2.3 3.2-2.3 5.4s.9 4.5 2.7 5.9 4.5 3.2 8.6 4.5c5 2.3 9.1 4.5 11.3 7.3 2.3 2.2 3.2 5.8 3.2 9.9zm32.2-19.5h-10.4v21.3c0 5.4 1.8 8.2 5.4 8.2 1.8 0 3.2 0 4.1-.5l.5 7.3c-1.8.9-4.5.9-7.7.9-3.6 0-6.8-1.4-9.1-3.6s-3.2-6.3-3.2-11.8v-21.8h-6.3v-7.3h6.3v-8.2l9.5-2.7v10.9h10.9v7.3zm48.1 14c0 6.8-1.8 12.2-5.9 16.3-4.1 4.5-9.5 6.8-15.9 6.8-6.3 0-11.3-2.3-15.4-6.3-3.6-4.1-5.9-9.5-5.9-15.9 0-6.8 1.8-12.2 5.9-16.8 4.1-4.1 9.1-6.3 15.9-6.3 6.3 0 11.3 2.3 15.4 6.3 4.1 4.1 5.9 9.6 5.9 15.9zm-10 .5c0-4.1-.9-7.3-2.7-10.4-1.8-3.6-5-5-8.6-5-4.1 0-6.8 1.8-9.1 5-1.8 2.7-2.7 6.3-2.7 10.4 0 4.1.9 7.3 2.7 10.4 2.3 3.6 5 5 8.6 5s6.8-1.8 8.6-5.4c2.3-2.8 3.2-5.8 3.2-10zm41.3-13.1c-.9 0-1.8-.5-3.2-.5-3.6 0-5.9 1.4-7.7 4.1-1.8 2.3-2.3 5-2.3 8.6v22.7h-9.5v-29.9c0-5 0-9.5-.5-13.6h8.6l.5 8.2h.5c.9-2.7 2.7-5 5-6.8 2.3-1.4 4.5-2.3 6.8-2.3h2.3c-.5.5-.5 9.5-.5 9.5zm43.5 11.3c0 1.8 0 3.2-.5 4.5h-29c0 4.1 1.4 7.7 4.1 10 2.3 1.8 5.4 3.2 9.5 3.2s8.2-.9 11.8-2.3l1.4 6.8c-4.1 1.8-9.1 2.7-14.5 2.7-6.8 0-12.2-1.8-15.9-5.9-3.6-4.1-5.9-9.1-5.9-15.9 0-6.3 1.8-12.2 5.4-16.3 3.6-4.5 8.6-6.8 15.4-6.8 6.3 0 10.9 2.3 14.1 6.8 2.7 2.7 4.1 7.7 4.1 13.2zm-9.5-2.8c0-2.7-.5-5.4-1.8-7.3-1.8-2.7-4.1-4.1-7.7-4.1-3.2 0-5.9 1.4-7.7 4.1-1.8 2.3-2.7 4.5-2.7 7.7l19.9-.4zm-321.9-71.1c0 5.4-1.8 9.5-5 12.2-3.2 2.3-7.3 3.6-12.7 3.6-2.7 0-5 0-6.8-.5v-29c2.7-.5 5.4-.5 8.2-.5 5 0 9.1.9 11.8 3.2 2.7 2.9 4.5 6.4 4.5 11zm-5.5 0c0-3.6-.9-5.9-2.7-8.2-1.8-1.8-4.5-2.7-8.2-2.7-1.4 0-2.7 0-3.6.5v22.2h3.2c3.6 0 6.3-.9 8.6-3.2 1.8-1.7 2.7-4.6 2.7-8.6zm31.8 4.6c0 3.2-.9 5.9-2.7 8.2-1.8 2.3-4.5 3.2-7.7 3.2s-5.4-.9-7.7-3.2c-1.8-2.3-2.7-4.5-2.7-7.7s.9-5.9 2.7-8.2c1.8-2.3 4.5-3.2 7.7-3.2s5.4.9 7.7 3.2c1.8 2.2 2.7 4.5 2.7 7.7zm-5 .4c0-1.8-.5-3.6-1.4-5-.9-1.8-2.3-2.7-4.1-2.7s-3.2.9-4.5 2.7c-.9 1.4-1.4 3.2-1.4 5s.5 3.6 1.4 5c.9 1.8 2.3 2.7 4.5 2.7 1.8 0 3.2-.9 4.1-2.7.9-1.4 1.4-3.1 1.4-5zm40.8-10.9l-6.8 21.3h-4.5l-2.7-9.1c-.9-2.3-1.4-4.5-1.8-6.8-.5 2.3-.9 4.5-1.8 6.8l-2.7 9.1h-4.5l-6.3-21.3h5l2.3 10c.5 2.3.9 4.5 1.4 6.8.5-1.8.9-4.1 1.8-6.8l3.2-10h4.1l2.7 10c.9 2.3 1.4 5 1.8 7.3.5-2.3.9-4.5 1.4-7.3l2.7-10h4.7zm24.5 21.3h-4.5v-12.2c0-3.6-1.4-5.4-4.1-5.4-1.4 0-2.7.5-3.6 1.4-.9.9-1.4 2.3-1.4 3.6v12.7H53v-21.3h4.1v3.2c.5-.9 1.4-1.8 2.3-2.7 1.4-.9 2.7-1.4 4.1-1.4 1.8 0 3.6.5 5 1.8 1.8 1.4 2.3 4.1 2.3 7.3v13.1l.4-.1zm13.1 0h-4.5v-31.3h4.5v31.3zm28.1-10.8c0 3.2-.9 5.9-2.7 8.2-1.8 2.3-4.5 3.2-7.7 3.2s-5.4-.9-7.7-3.2c-1.8-2.3-2.7-4.5-2.7-7.7s.9-5.9 2.7-8.2c1.8-2.3 4.5-3.2 7.7-3.2s5.4.9 7.7 3.2c1.8 2.2 2.7 4.5 2.7 7.7zm-5 .4c0-1.8-.5-3.6-1.4-5-.9-1.8-2.3-2.7-4.1-2.7-1.8 0-3.2.9-4.5 2.7-.9 1.4-1.4 3.2-1.4 5s.5 3.6 1.4 5c.9 1.8 2.3 2.7 4.5 2.7 1.8 0 3.2-.9 4.1-2.7 1-1.4 1.4-3.1 1.4-5zm27.7 10.4H131l-.5-2.3c-1.4 1.8-3.6 2.7-6.3 2.7-1.8 0-3.6-.5-5-1.8-.9-1.4-1.8-2.7-1.8-4.5 0-2.7.9-4.5 3.2-5.9 2.3-1.4 5.4-2.3 9.1-1.8v-.5c0-2.7-1.4-4.1-4.5-4.1-2.3 0-4.1.5-5.4 1.4l-.9-3.2c1.8-1.4 4.5-1.8 7.3-1.8 5.4 0 8.2 3.2 8.2 9.1v7.7c.7 2.3.7 4.2.7 5zm-5-7.3v-3.2c-5.4 0-7.7 1.4-7.7 4.5 0 .9.5 1.8.9 2.7.5.5 1.4.9 2.3.9s1.8-.5 2.7-.9c.9-.5 1.4-1.4 1.8-2.7v-1.3zm32.2 7.3h-4.1v-3.6c-1.4 2.7-3.6 4.1-6.8 4.1-2.7 0-4.5-.9-6.3-3.2-1.8-1.8-2.7-4.5-2.7-7.7 0-3.6.9-6.3 2.7-8.6 1.8-1.8 4.1-3.2 6.8-3.2s5 .9 5.9 2.7v-12.2h4.5v25.4c-.5 2.8 0 4.5 0 6.3zm-5-9v-5c-.5-1.4-.9-2.3-1.8-2.7-.9-.9-1.8-1.4-3.2-1.4-1.8 0-3.2.9-4.1 2.3-.9 1.4-1.4 3.2-1.4 5.4s.5 3.6 1.4 5c.9 1.4 2.3 2.3 4.1 2.3 1.4 0 2.7-.5 3.6-1.8 1-.9 1.4-2.4 1.4-4.1zm45.3-1.8c0 3.2-.9 5.9-2.7 8.2-1.8 2.3-4.5 3.2-7.7 3.2s-5.4-.9-7.7-3.2c-1.8-2.3-2.7-4.5-2.7-7.7s.9-5.9 2.7-8.2c1.8-2.3 4.5-3.2 7.7-3.2s5.4.9 7.7 3.2c1.8 2.2 2.7 4.5 2.7 7.7zm-4.5.4c0-1.8-.5-3.6-1.4-5-.9-1.8-2.3-2.7-4.1-2.7s-3.2.9-4.5 2.7c-.9 1.4-1.4 3.2-1.4 5s.5 3.6 1.4 5c.9 1.8 2.3 2.7 4.5 2.7 1.8 0 3.2-.9 4.1-2.7 1-1.4 1.4-3.1 1.4-5zm30.4 10.4H224v-12.2c0-3.6-1.4-5.4-4.5-5.4-1.4 0-2.7.5-3.6 1.4-.9.9-1.4 2.3-1.4 3.6v12.7H210v-21.3h4.1v3.2c.5-.9 1.4-1.8 2.3-2.7 1.4-.9 2.7-1.4 4.5-1.4s3.6.5 5 1.8c1.8 1.4 2.3 4.1 2.3 7.3v13.1l.3-.1zm31.7-17.7h-5.4v10.4c0 2.7.9 4.1 2.7 4.1h2.3v3.6c-.9.5-2.3.5-3.6.5-1.8 0-3.2-.5-4.5-1.8-.9-1.4-1.8-3.2-1.8-5.9v-10.9h-3.2v-3.6h3.2v-4.1l4.5-1.4v5.4h5.4l.4 3.7zm25.4 17.7h-4.5v-12.2c0-3.6-1.4-5.9-4.1-5.9-2.3 0-3.6.9-4.5 3.2v14.5H268v-31.3h4.5v12.6c1.4-2.3 3.6-3.6 6.3-3.6 1.8 0 3.6.5 5 1.8 1.8 1.8 2.3 4.1 2.3 7.3-.5.9-.5 13.6-.5 13.6zm25.8-11.4v2.3h-14.1c0 2.3.9 3.6 2.3 5 1.4.9 2.7 1.4 4.5 1.4 2.3 0 4.1-.5 5.9-.9l.9 3.2c-1.8.9-4.5 1.4-7.3 1.4-3.2 0-5.9-.9-7.7-2.7-1.8-1.8-2.7-4.5-2.7-7.7s.9-5.9 2.7-8.2c1.8-2.3 4.5-3.6 7.3-3.6 3.2 0 5.4 1.4 6.8 3.6 1 1.3 1.4 3.6 1.4 6.2zm-4.5-1.3c0-1.4-.5-2.7-.9-3.6-.9-1.4-2.3-1.8-3.6-1.8s-2.7.5-3.6 1.8c-.9.9-1.4 2.3-1.4 3.6h9.5z"/></svg>