<?xml version="1.0" encoding="utf-8"?>
<!-- Generator: Adobe Illustrator 18.1.1, SVG Export Plug-In . SVG Version: 6.00 Build 0)  -->
<!DOCTYPE svg PUBLIC "-//W3C//DTD SVG 1.1//EN" "http://www.w3.org/Graphics/SVG/1.1/DTD/svg11.dtd">
<svg version="1.1" id="US_UK_Download_on_the" xmlns="http://www.w3.org/2000/svg" xmlns:xlink="http://www.w3.org/1999/xlink"
	 x="0px" y="0px" viewBox="-233.8 992.4 603.3 172.7" enable-background="new -233.8 992.4 603.3 172.7" xml:space="preserve">
<g>
	<path fill="#FFFFFF" d="M369.5,1147.9c0,9.5-7.7,17.2-17.2,17.2h-568.9c-9.5,0-17.2-7.7-17.2-17.2v-138.3c0-9.5,7.7-17.2,17.2-17.2
		h568.9c9.5,0,17.2,7.7,17.2,17.2V1147.9L369.5,1147.9z"/>
	<g>
		<g>
			<path d="M-101.5,1077.6c0-14.5,11.8-21.8,12.7-22.2c-6.8-10-17.7-11.3-21.3-11.3c-9.1-0.9-17.7,5.4-22.2,5.4s-11.8-5.4-19-5
				c-9.5,0-18.6,5.9-23.6,14.5c-10.4,17.7-2.7,44,7.3,58.5c5,7.3,10.9,15,18.1,14.5c7.3-0.5,10-4.5,19-4.5c8.6,0,11.3,4.5,19,4.5
				s12.7-7.3,17.7-14.1c5.9-8.2,8.2-15.9,8.2-16.3C-86.1,1100.8-101.1,1094.8-101.5,1077.6z"/>
			<path d="M-116.1,1034.6c4.1-5,6.8-11.8,5.9-18.6c-5.9,0.5-12.7,4.1-17.2,8.6c-3.6,4.1-6.8,11.3-5.9,17.7
				C-126.5,1043.1-120.1,1039.6-116.1,1034.6z"/>
		</g>
	</g>
	<g>
		<path d="M5,1130.6H-5.4l-5.4-17.7h-19.5l-5.4,17.7h-10l19.5-60.3h11.8L5,1130.6z M-12.2,1105.8l-5-15.9c-0.5-1.8-1.4-5.4-3.2-11.3
			l0,0c-0.5,2.7-1.4,6.3-2.7,11.3l-5,15.9H-12.2z"/>
		<path d="M55.3,1108.4c0,7.3-1.8,13.1-5.9,17.7c-3.6,3.6-8.2,5.9-13.1,5.9c-5.9,0-10-2.3-12.2-6.3l0,0v23.1h-9.5v-46.7
			c0-4.5,0-9.5-0.5-14.5h8.6l0.5,6.8l0,0c3.2-5,8.2-7.7,14.5-7.7c5,0,9.5,1.8,12.7,5.9C53.5,1096.2,55.3,1101.6,55.3,1108.4z
			 M45.3,1108.9c0-4.1-0.9-7.7-2.7-10.4c-2.3-2.7-5-4.1-8.6-4.1c-2.3,0-4.5,0.9-6.3,2.3c-1.8,1.8-3.2,3.6-3.6,6.3
			c-0.5,1.4-0.5,2.3-0.5,2.7v7.3c0,3.2,0.9,5.9,2.7,8.2c1.8,2.3,4.5,3.2,7.7,3.2c3.6,0,6.3-1.4,8.6-4.1
			C44.4,1117.1,45.3,1113.4,45.3,1108.9z"/>
		<path d="M105.2,1108.4c0,7.3-1.8,13.1-5.9,17.7c-3.6,3.6-8.2,5.9-13.1,5.9c-5.9,0-10-2.3-12.2-6.3l0,0v23.1h-9.5v-46.7
			c0-4.5,0-9.5-0.5-14.5h8.6l0.5,6.8l0,0c3.2-5,8.2-7.7,14.5-7.7c5,0,9.5,1.8,12.7,5.9C103.4,1096.2,105.2,1101.6,105.2,1108.4z
			 M95.2,1108.9c0-4.1-0.9-7.7-2.7-10.4c-2.3-2.7-5-4.1-8.6-4.1c-2.3,0-4.5,0.9-6.3,2.3c-1.8,1.8-3.2,3.6-3.6,6.3
			c-0.5,1.4-0.5,2.3-0.5,2.7v7.3c0,3.2,0.9,5.9,2.7,8.2c1.8,2.3,4.5,3.2,7.7,3.2c3.6,0,6.3-1.4,8.6-4.1
			C94.3,1117.1,95.2,1113.4,95.2,1108.9z"/>
		<path d="M160.9,1113.9c0,5-1.8,9.5-5.4,12.7c-4.1,3.6-9.5,5.4-16.3,5.4c-6.3,0-11.8-1.4-15.4-3.6l2.3-8.2
			c4.1,2.7,9.1,4.1,14.1,4.1c3.6,0,6.3-0.9,8.6-2.3c1.8-1.8,3.2-3.6,3.2-6.8c0-2.3-0.9-4.5-2.7-6.3s-4.5-3.2-8.2-4.5
			c-10.4-4.1-15.9-9.5-15.9-17.2c0-5,1.8-9.1,5.4-12.2c3.6-3.2,8.6-4.5,15-4.5c5.4,0,10,0.9,13.6,2.7l-2.3,7.7
			c-3.6-1.8-7.3-2.7-11.3-2.7c-3.6,0-5.9,0.9-8.2,2.7c-1.8,1.4-2.3,3.2-2.3,5.4s0.9,4.5,2.7,5.9s4.5,3.2,8.6,4.5
			c5,2.3,9.1,4.5,11.3,7.3C160,1106.2,160.9,1109.8,160.9,1113.9z"/>
		<path d="M193.1,1094.4h-10.4v21.3c0,5.4,1.8,8.2,5.4,8.2c1.8,0,3.2,0,4.1-0.5l0.5,7.3c-1.8,0.9-4.5,0.9-7.7,0.9
			c-3.6,0-6.8-1.4-9.1-3.6s-3.2-6.3-3.2-11.8v-21.8h-6.3v-7.3h6.3v-8.2l9.5-2.7v10.9h10.9C193.1,1087.1,193.1,1094.4,193.1,1094.4z"
			/>
		<path d="M241.2,1108.4c0,6.8-1.8,12.2-5.9,16.3c-4.1,4.5-9.5,6.8-15.9,6.8c-6.3,0-11.3-2.3-15.4-6.3c-3.6-4.1-5.9-9.5-5.9-15.9
			c0-6.8,1.8-12.2,5.9-16.8c4.1-4.1,9.1-6.3,15.9-6.3c6.3,0,11.3,2.3,15.4,6.3C239.4,1096.6,241.2,1102.1,241.2,1108.4z
			 M231.2,1108.9c0-4.1-0.9-7.3-2.7-10.4c-1.8-3.6-5-5-8.6-5c-4.1,0-6.8,1.8-9.1,5c-1.8,2.7-2.7,6.3-2.7,10.4
			c0,4.1,0.9,7.3,2.7,10.4c2.3,3.6,5,5,8.6,5s6.8-1.8,8.6-5.4C230.3,1116.1,231.2,1113.1,231.2,1108.9z"/>
		<path d="M272.5,1095.8c-0.9,0-1.8-0.5-3.2-0.5c-3.6,0-5.9,1.4-7.7,4.1c-1.8,2.3-2.3,5-2.3,8.6v22.7h-9.5v-29.9c0-5,0-9.5-0.5-13.6
			h8.6l0.5,8.2h0.5c0.9-2.7,2.7-5,5-6.8c2.3-1.4,4.5-2.3,6.8-2.3c0.9,0,1.8,0,2.3,0C272.5,1086.8,272.5,1095.8,272.5,1095.8z"/>
		<path d="M316,1107.1c0,1.8,0,3.2-0.5,4.5h-29c0,4.1,1.4,7.7,4.1,10c2.3,1.8,5.4,3.2,9.5,3.2s8.2-0.9,11.8-2.3l1.4,6.8
			c-4.1,1.8-9.1,2.7-14.5,2.7c-6.8,0-12.2-1.8-15.9-5.9c-3.6-4.1-5.9-9.1-5.9-15.9c0-6.3,1.8-12.2,5.4-16.3
			c3.6-4.5,8.6-6.8,15.4-6.8c6.3,0,10.9,2.3,14.1,6.8C314.6,1096.6,316,1101.6,316,1107.1z M306.5,1104.3c0-2.7-0.5-5.4-1.8-7.3
			c-1.8-2.7-4.1-4.1-7.7-4.1c-3.2,0-5.9,1.4-7.7,4.1c-1.8,2.3-2.7,4.5-2.7,7.7L306.5,1104.3L306.5,1104.3z"/>
	</g>
	<g>
		<g>
			<path d="M-15.4,1033.2c0,5.4-1.8,9.5-5,12.2c-3.2,2.3-7.3,3.6-12.7,3.6c-2.7,0-5,0-6.8-0.5v-29c2.7-0.5,5.4-0.5,8.2-0.5
				c5,0,9.1,0.9,11.8,3.2C-17.2,1025.1-15.4,1028.6-15.4,1033.2z M-20.9,1033.2c0-3.6-0.9-5.9-2.7-8.2c-1.8-1.8-4.5-2.7-8.2-2.7
				c-1.4,0-2.7,0-3.6,0.5v22.2c0.5,0,1.8,0,3.2,0c3.6,0,6.3-0.9,8.6-3.2C-21.8,1040.1-20.9,1037.2-20.9,1033.2z"/>
			<path d="M10.9,1037.8c0,3.2-0.9,5.9-2.7,8.2c-1.8,2.3-4.5,3.2-7.7,3.2s-5.4-0.9-7.7-3.2c-1.8-2.3-2.7-4.5-2.7-7.7
				s0.9-5.9,2.7-8.2c1.8-2.3,4.5-3.2,7.7-3.2s5.4,0.9,7.7,3.2C10,1032.3,10.9,1034.6,10.9,1037.8z M5.9,1038.2c0-1.8-0.5-3.6-1.4-5
				c-0.9-1.8-2.3-2.7-4.1-2.7s-3.2,0.9-4.5,2.7c-0.9,1.4-1.4,3.2-1.4,5s0.5,3.6,1.4,5c0.9,1.8,2.3,2.7,4.5,2.7
				c1.8,0,3.2-0.9,4.1-2.7C5.4,1041.8,5.9,1040.1,5.9,1038.2z"/>
			<path d="M46.7,1027.3l-6.8,21.3h-4.5l-2.7-9.1c-0.9-2.3-1.4-4.5-1.8-6.8l0,0c-0.5,2.3-0.9,4.5-1.8,6.8l-2.7,9.1h-4.5l-6.3-21.3h5
				l2.3,10c0.5,2.3,0.9,4.5,1.4,6.8l0,0c0.5-1.8,0.9-4.1,1.8-6.8l3.2-10h4.1l2.7,10c0.9,2.3,1.4,5,1.8,7.3l0,0
				c0.5-2.3,0.9-4.5,1.4-7.3l2.7-10H46.7L46.7,1027.3z"/>
			<path d="M71.2,1048.6h-4.5v-12.2c0-3.6-1.4-5.4-4.1-5.4c-1.4,0-2.7,0.5-3.6,1.4c-0.9,0.9-1.4,2.3-1.4,3.6v12.7H53v-15.4
				c0-1.8,0-4.1,0-5.9h4.1v3.2l0,0c0.5-0.9,1.4-1.8,2.3-2.7c1.4-0.9,2.7-1.4,4.1-1.4c1.8,0,3.6,0.5,5,1.8c1.8,1.4,2.3,4.1,2.3,7.3
				v13.1L71.2,1048.6L71.2,1048.6z"/>
			<path d="M84.3,1048.6h-4.5v-31.3h4.5V1048.6z"/>
			<path d="M112.4,1037.8c0,3.2-0.9,5.9-2.7,8.2c-1.8,2.3-4.5,3.2-7.7,3.2s-5.4-0.9-7.7-3.2c-1.8-2.3-2.7-4.5-2.7-7.7
				s0.9-5.9,2.7-8.2c1.8-2.3,4.5-3.2,7.7-3.2s5.4,0.9,7.7,3.2C111.5,1032.3,112.4,1034.6,112.4,1037.8z M107.4,1038.2
				c0-1.8-0.5-3.6-1.4-5c-0.9-1.8-2.3-2.7-4.1-2.7c-1.8,0-3.2,0.9-4.5,2.7c-0.9,1.4-1.4,3.2-1.4,5s0.5,3.6,1.4,5
				c0.9,1.8,2.3,2.7,4.5,2.7c1.8,0,3.2-0.9,4.1-2.7C107,1041.8,107.4,1040.1,107.4,1038.2z"/>
			<path d="M135.1,1048.6H131l-0.5-2.3l0,0c-1.4,1.8-3.6,2.7-6.3,2.7c-1.8,0-3.6-0.5-5-1.8c-0.9-1.4-1.8-2.7-1.8-4.5
				c0-2.7,0.9-4.5,3.2-5.9c2.3-1.4,5.4-2.3,9.1-1.8v-0.5c0-2.7-1.4-4.1-4.5-4.1c-2.3,0-4.1,0.5-5.4,1.4l-0.9-3.2
				c1.8-1.4,4.5-1.8,7.3-1.8c5.4,0,8.2,3.2,8.2,9.1v7.7C135.1,1045.9,135.1,1047.8,135.1,1048.6z M130.1,1041.3v-3.2
				c-5.4,0-7.7,1.4-7.7,4.5c0,0.9,0.5,1.8,0.9,2.7c0.5,0.5,1.4,0.9,2.3,0.9s1.8-0.5,2.7-0.9c0.9-0.5,1.4-1.4,1.8-2.7
				C130.1,1041.8,130.1,1041.8,130.1,1041.3z"/>
			<path d="M162.3,1048.6h-4.1v-3.6l0,0c-1.4,2.7-3.6,4.1-6.8,4.1c-2.7,0-4.5-0.9-6.3-3.2c-1.8-1.8-2.7-4.5-2.7-7.7
				c0-3.6,0.9-6.3,2.7-8.6c1.8-1.8,4.1-3.2,6.8-3.2s5,0.9,5.9,2.7l0,0v-12.2h4.5v25.4C161.8,1045.1,162.3,1046.8,162.3,1048.6z
				 M157.3,1039.6v-3.6c0-0.5,0-0.9,0-1.4c-0.5-1.4-0.9-2.3-1.8-2.7c-0.9-0.9-1.8-1.4-3.2-1.4c-1.8,0-3.2,0.9-4.1,2.3
				c-0.9,1.4-1.4,3.2-1.4,5.4c0,2.2,0.5,3.6,1.4,5c0.9,1.4,2.3,2.3,4.1,2.3c1.4,0,2.7-0.5,3.6-1.8
				C156.9,1042.8,157.3,1041.3,157.3,1039.6z"/>
			<path d="M202.6,1037.8c0,3.2-0.9,5.9-2.7,8.2c-1.8,2.3-4.5,3.2-7.7,3.2s-5.4-0.9-7.7-3.2c-1.8-2.3-2.7-4.5-2.7-7.7
				s0.9-5.9,2.7-8.2c1.8-2.3,4.5-3.2,7.7-3.2s5.4,0.9,7.7,3.2C201.7,1032.3,202.6,1034.6,202.6,1037.8z M198.1,1038.2
				c0-1.8-0.5-3.6-1.4-5c-0.9-1.8-2.3-2.7-4.1-2.7s-3.2,0.9-4.5,2.7c-0.9,1.4-1.4,3.2-1.4,5s0.5,3.6,1.4,5c0.9,1.8,2.3,2.7,4.5,2.7
				c1.8,0,3.2-0.9,4.1-2.7C197.7,1041.8,198.1,1040.1,198.1,1038.2z"/>
			<path d="M228.5,1048.6H224v-12.2c0-3.6-1.4-5.4-4.5-5.4c-1.4,0-2.7,0.5-3.6,1.4c-0.9,0.9-1.4,2.3-1.4,3.6v12.7H210v-15.4
				c0-1.8,0-4.1,0-5.9h4.1v3.2l0,0c0.5-0.9,1.4-1.8,2.3-2.7c1.4-0.9,2.7-1.4,4.5-1.4s3.6,0.5,5,1.8c1.8,1.4,2.3,4.1,2.3,7.3v13.1
				L228.5,1048.6L228.5,1048.6z"/>
			<path d="M260.2,1030.9h-5.4v10.4c0,2.7,0.9,4.1,2.7,4.1c0.9,0,1.4,0,2.3,0v3.6c-0.9,0.5-2.3,0.5-3.6,0.5c-1.8,0-3.2-0.5-4.5-1.8
				c-0.9-1.4-1.8-3.2-1.8-5.9v-10.9h-3.2v-3.6h3.2v-4.1l4.5-1.4v5.4h5.4L260.2,1030.9L260.2,1030.9z"/>
			<path d="M285.6,1048.6h-4.5v-12.2c0-3.6-1.4-5.9-4.1-5.9c-2.3,0-3.6,0.9-4.5,3.2c0,0.5,0,0.9,0,1.8v12.7H268v-31.3h4.5v12.6l0,0
				c1.4-2.3,3.6-3.6,6.3-3.6c1.8,0,3.6,0.5,5,1.8c1.8,1.8,2.3,4.1,2.3,7.3C285.6,1035.9,285.6,1048.6,285.6,1048.6z"/>
			<path d="M311.4,1037.2c0,0.9,0,1.4,0,2.3h-14.1c0,2.3,0.9,3.6,2.3,5c1.4,0.9,2.7,1.4,4.5,1.4c2.3,0,4.1-0.5,5.9-0.9l0.9,3.2
				c-1.8,0.9-4.5,1.4-7.3,1.4c-3.2,0-5.9-0.9-7.7-2.7c-1.8-1.8-2.7-4.5-2.7-7.7s0.9-5.9,2.7-8.2c1.8-2.3,4.5-3.6,7.3-3.6
				c3.2,0,5.4,1.4,6.8,3.6C311,1032.3,311.4,1034.6,311.4,1037.2z M306.9,1035.9c0-1.4-0.5-2.7-0.9-3.6c-0.9-1.4-2.3-1.8-3.6-1.8
				s-2.7,0.5-3.6,1.8c-0.9,0.9-1.4,2.3-1.4,3.6C296.9,1035.9,306.9,1035.9,306.9,1035.9z"/>
		</g>
	</g>
</g>
</svg>
