<?xml version="1.0" encoding="utf-8"?>
<!-- Generator: Adobe Illustrator 18.1.1, SVG Export Plug-In . SVG Version: 6.00 Build 0)  -->
<!DOCTYPE svg PUBLIC "-//W3C//DTD SVG 1.1//EN" "http://www.w3.org/Graphics/SVG/1.1/DTD/svg11.dtd">
<svg version="1.1" id="Layer_1" xmlns="http://www.w3.org/2000/svg" xmlns:xlink="http://www.w3.org/1999/xlink" x="0px" y="0px"
	 viewBox="0 0 511.5 167.3" enable-background="new 0 0 511.5 167.3" xml:space="preserve">
<g>
	<path fill="#A7A9AC" d="M511.5,144.7c0,12.5-10.1,22.6-22.6,22.6H22.6C10.1,167.3,0,157.2,0,144.7V22.6C0,10.1,10.1,0,22.6,0h466.3
		c12.5,0,22.6,10.1,22.6,22.6V144.7z"/>
	<g id="PLAY">
		<defs>
			<path id="SVGID_1_" d="M110.8,73.2L87.8,59.9c0,0-42-24.3-44.5-25.7c-2.5-1.4-4.9-0.6-4.9,2.4c0,5,0,51.8,0,51.8s0,50.6,0,52.9
				c0,2.2,1.8,3.2,3.9,2C44.4,142,87.8,117,87.8,117l23.1-13.3c0,0,19.6-11.3,22.2-12.8c2.6-1.5,2.4-3.6,0.2-4.7
				S110.8,73.2,110.8,73.2z"/>
		</defs>
		<clipPath id="SVGID_2_">
			<use xlink:href="#SVGID_1_"  overflow="visible"/>
		</clipPath>
		<linearGradient id="SVGID_3_" gradientUnits="userSpaceOnUse" x1="66.9316" y1="31.771" x2="66.9316" y2="145.0747">
			<stop  offset="0" style="stop-color:#257CB0"/>
			<stop  offset="0.2863" style="stop-color:#4A93B5"/>
			<stop  offset="0.767" style="stop-color:#78BCBB"/>
			<stop  offset="1" style="stop-color:#89CFBD"/>
		</linearGradient>
		<polygon clip-path="url(#SVGID_2_)" fill="url(#SVGID_3_)" points="38.4,31.8 38.4,88.4 38.4,145.1 95.5,88.4 		"/>
		<linearGradient id="SVGID_4_" gradientUnits="userSpaceOnUse" x1="38.3647" y1="59.8913" x2="110.8442" y2="59.8913">
			<stop  offset="0" style="stop-color:#52C1AD"/>
			<stop  offset="1" style="stop-color:#DEE89A"/>
		</linearGradient>
		<polygon clip-path="url(#SVGID_2_)" fill="url(#SVGID_4_)" points="110.8,73.2 87.8,59.9 38.4,31.4 38.4,31.8 95.5,88.4 		"/>
		<linearGradient id="SVGID_5_" gradientUnits="userSpaceOnUse" x1="74.604" y1="88.4238" x2="74.604" y2="145.4858">
			<stop  offset="0" style="stop-color:#EC413D"/>
			<stop  offset="0.1668" style="stop-color:#DA4452"/>
			<stop  offset="0.5748" style="stop-color:#B0487A"/>
			<stop  offset="0.8619" style="stop-color:#954A92"/>
			<stop  offset="1" style="stop-color:#8A4A9D"/>
		</linearGradient>
		<polygon clip-path="url(#SVGID_2_)" fill="url(#SVGID_5_)" points="38.4,145.1 38.4,145.5 87.8,117 110.8,103.6 95.5,88.4 		"/>
		<linearGradient id="SVGID_6_" gradientUnits="userSpaceOnUse" x1="116.3493" y1="73.207" x2="116.3493" y2="103.6387">
			<stop  offset="0" style="stop-color:#F58879"/>
			<stop  offset="0.1194" style="stop-color:#F69079"/>
			<stop  offset="0.7128" style="stop-color:#FCB877"/>
			<stop  offset="1" style="stop-color:#FEC874"/>
		</linearGradient>
		<polygon clip-path="url(#SVGID_2_)" fill="url(#SVGID_6_)" points="110.8,73.2 95.5,88.4 110.8,103.6 137.2,88.4 		"/>
	</g>
	<g>
		<path fill="#F9F9F9" d="M398.1,110.6c-2.1,0-4.1-0.4-5.9-1.2c-1.8-0.8-3.3-2-4.5-3.7h-0.4c0.2,1.9,0.4,3.7,0.4,5.5v13.6h-5V77h4.1
			l0.7,4.5h0.2c1.3-1.8,2.8-3.1,4.5-3.9c1.7-0.8,3.7-1.2,5.9-1.2c4.4,0,7.7,1.5,10.1,4.5c2.4,3,3.6,7.2,3.6,12.6
			c0,5.4-1.2,9.6-3.6,12.6C405.7,109.1,402.3,110.6,398.1,110.6z M397.3,80.7c-3.4,0-5.8,0.9-7.3,2.8c-1.5,1.9-2.3,4.8-2.3,8.9v1.1
			c0,4.6,0.8,7.9,2.3,9.9c1.5,2,4,3,7.4,3c2.8,0,5.1-1.2,6.7-3.5c1.6-2.3,2.4-5.5,2.4-9.5c0-4.1-0.8-7.3-2.4-9.5
			C402.5,81.8,400.3,80.7,397.3,80.7z"/>
		<path fill="#F9F9F9" d="M423.3,110h-5V63.2h5V110z"/>
		<path fill="#F9F9F9" d="M452,110l-1-4.7h-0.2c-1.6,2.1-3.3,3.5-4.9,4.2c-1.6,0.7-3.7,1.1-6.1,1.1c-3.3,0-5.8-0.8-7.7-2.5
			c-1.9-1.7-2.8-4.1-2.8-7.2c0-6.7,5.3-10.1,16-10.5l5.6-0.2v-2c0-2.6-0.6-4.5-1.7-5.7c-1.1-1.2-2.9-1.8-5.3-1.8
			c-2.7,0-5.9,0.8-9.3,2.5l-1.5-3.8c1.6-0.9,3.4-1.6,5.3-2.1c1.9-0.5,3.9-0.8,5.8-0.8c3.9,0,6.8,0.9,8.7,2.6
			c1.9,1.7,2.8,4.5,2.8,8.4V110H452z M440.7,106.5c3.1,0,5.5-0.9,7.3-2.6c1.8-1.7,2.7-4.1,2.7-7.2v-3l-5,0.2c-4,0.1-6.8,0.8-8.6,1.9
			c-1.8,1.1-2.6,2.8-2.6,5.1c0,1.8,0.5,3.2,1.6,4.1C437.2,106,438.7,106.5,440.7,106.5z"/>
		<path fill="#F9F9F9" d="M458.6,77h5.3l7.2,18.8c1.6,4.3,2.6,7.4,2.9,9.3h0.2c0.3-1,0.8-2.8,1.6-5.2c0.8-2.5,3.6-10.1,8.2-22.8h5.4
			l-14.2,37.5c-1.4,3.7-3,6.3-4.9,7.9c-1.9,1.6-4.2,2.3-6.9,2.3c-1.5,0-3-0.2-4.5-0.5v-4c1.1,0.2,2.3,0.4,3.7,0.4
			c3.4,0,5.9-1.9,7.3-5.8l1.8-4.7L458.6,77z"/>
	</g>
	<g>
		<path fill="#F9F9F9" d="M305.6,80.1c1.6,1.3,4.9,4.1,4.9,9.3c0,5.1-2.9,7.5-5.8,9.8c-0.9,0.9-1.9,1.9-1.9,3.4c0,1.5,1,2.3,1.8,3
			l2.5,1.9c3,2.6,5.8,4.9,5.8,9.7c0,6.5-6.3,13-18.1,13c-10,0-14.8-4.8-14.8-9.9c0-2.5,1.2-6,5.3-8.4c4.3-2.6,10.1-3,13.2-3.2
			c-1-1.2-2.1-2.5-2.1-4.7c0-1.2,0.3-1.9,0.7-2.7c-0.8,0.1-1.5,0.1-2.2,0.1c-7.3,0-11.4-5.4-11.4-10.8c0-3.2,1.4-6.7,4.4-9.2
			c3.9-3.2,8.6-3.8,12.3-3.8h14.2l-4.4,2.5H305.6z M300.7,110.7c-0.6-0.1-0.9-0.1-1.6-0.1c-0.6,0-4.3,0.1-7.2,1.1
			c-1.5,0.5-5.9,2.2-5.9,7.1c0,4.9,4.8,8.4,12.1,8.4c6.6,0,10.1-3.2,10.1-7.4C308.2,116.3,306,114.4,300.7,110.7z M302.7,97.6
			c1.6-1.6,1.7-3.8,1.7-5c0-5-3-12.7-8.7-12.7c-1.8,0-3.7,0.9-4.8,2.3c-1.2,1.4-1.5,3.3-1.5,5.1c0,4.6,2.7,12.3,8.6,12.3
			C299.8,99.5,301.6,98.7,302.7,97.6z"/>
		<path fill="#F9F9F9" d="M262.2,109.6c-10.9,0-16.8-8.5-16.8-16.2c0-9,7.4-16.7,17.8-16.7c10.1,0,16.4,7.9,16.4,16.2
			C279.7,101,273.4,109.6,262.2,109.6z M270.8,104c1.7-2.2,2.1-5,2.1-7.6c0-6.1-2.9-17.6-11.4-17.6c-2.3,0-4.5,0.9-6.2,2.3
			c-2.7,2.4-3.2,5.4-3.2,8.4c0,6.8,3.4,18,11.7,18C266.5,107.5,269.2,106.2,270.8,104z"/>
		<path fill="#F9F9F9" d="M224.9,109.6c-10.9,0-16.8-8.5-16.8-16.2c0-9,7.4-16.7,17.8-16.7c10.1,0,16.4,7.9,16.4,16.2
			C242.4,101,236.1,109.6,224.9,109.6z M233.5,104c1.7-2.2,2.1-5,2.1-7.6c0-6.1-2.9-17.6-11.4-17.6c-2.3,0-4.5,0.9-6.2,2.3
			c-2.7,2.4-3.2,5.4-3.2,8.4c0,6.8,3.4,18,11.7,18C229.2,107.5,231.9,106.2,233.5,104z"/>
		<path fill="#F9F9F9" d="M202.9,108.5l-9.9,2.3c-4,0.6-7.6,1.2-11.4,1.2c-19.1,0-26.4-14-26.4-25c0-13.4,10.3-25.9,27.9-25.9
			c3.7,0,7.3,0.6,10.6,1.5c5.2,1.5,7.6,3.2,9.1,4.3l-5.7,5.5l-2.4,0.6l1.7-2.8c-2.4-2.3-6.6-6.5-14.8-6.5
			c-10.9,0-19.2,8.3-19.2,20.4c0,13,9.4,25.2,24.5,25.2c4.4,0,6.7-0.9,8.8-1.7V96.3l-10.4,0.6l5.5-3h14.7l-1.8,1.7
			c-0.5,0.4-0.6,0.6-0.7,1.1c-0.1,0.6-0.1,2.6-0.1,3.3V108.5z"/>
		<path fill="#F9F9F9" d="M327.5,106.5c-2.3-0.2-2.8-0.6-2.8-3.3v-0.8V64c0-0.1,0-0.3,0-0.4c0.3-2.4,1-2.8,3.1-4.1H318l-5.2,2.5h5.3
			v0l0,0v40.4v2.3c0,1.4-0.3,1.6-1.9,3.7h12.2l2.6-1.5C329.8,106.7,328.7,106.6,327.5,106.5z"/>
		<path fill="#F9F9F9" d="M355.6,107.1c-0.8,0.4-1.5,0.9-2.3,1.2c-2.3,1-4.6,1.3-6.7,1.3c-2.2,0-5.6-0.1-9.1-2.7
			c-4.9-3.4-7-9.3-7-14.5c0-10.6,8.7-15.9,15.7-15.9c2.5,0,5,0.6,7.1,1.9c3.4,2.3,4.3,5.2,4.8,6.8L342,91.9l-5.3,0.4
			c1.7,8.7,7.6,13.8,14.2,13.8c3.5,0,6-1.2,8.4-2.4L355.6,107.1z M349.2,86.7c1.3-0.5,2-0.9,2-1.9c0-2.7-3.1-5.9-6.8-5.9
			c-2.8,0-7.9,2.1-7.9,9.5c0,1.2,0.1,2.4,0.2,3.6L349.2,86.7z"/>
		<g>
			<path fill="#F9F9F9" d="M362.3,77.1v4.5h-0.6v-4.5h-1.5v-0.5h3.5v0.5H362.3z"/>
			<path fill="#F9F9F9" d="M368.4,81.6v-4.6h0l-1.4,4.6h-0.4l-1.4-4.6h0v4.6h-0.5v-5h0.9l1.3,4h0l1.3-4h0.9v5H368.4z"/>
		</g>
	</g>
	<g>
		<path fill="#F9F9FA" d="M169,47.6h-3.4c0-0.5-0.3-1.8-1-4h-5c-0.7,2.2-1,3.5-1,4h-3.2c0-0.3,0.8-2.6,2.5-6.9
			c1.7-4.3,2.5-6.7,2.5-7.1h4.1c0,0.4,0.8,2.7,2.3,7C168.2,44.9,169,47.2,169,47.6z M164,41.5c-1.2-3.7-1.8-5.7-1.8-6H162
			c0,0.3-0.6,2.3-1.9,6H164z"/>
		<path fill="#F9F9FA" d="M182.8,47.6h-2.7c0-0.3-1-1.8-3-4.7c-2.1-3-3.2-5-3.5-6.1h-0.2c0.2,1.6,0.3,3,0.3,4.3c0,1.8,0,3.9,0.2,6.5
			h-2.6c0.1-2.2,0.2-4.7,0.2-7.3c0-2.6-0.1-4.8-0.2-6.7h3.2c0,0.4,0.9,1.9,2.7,4.5c1.9,2.8,3,4.7,3.2,5.7h0.2
			c-0.2-1.6-0.3-3-0.3-4.3c0-1.9-0.1-3.9-0.2-6h2.7c-0.1,1.8-0.2,4-0.2,6.7C182.7,43,182.7,45.4,182.8,47.6z"/>
		<path fill="#F9F9FA" d="M198.4,40.1c0,2-0.7,3.8-2,5.3c-1.3,1.5-3.1,2.3-5.5,2.3c-1.1,0-2.5,0-4.4-0.1c0.1-2.2,0.1-4.6,0.1-7.3
			c0-2.6,0-4.8-0.1-6.7h1.9c0.3,0,0.8,0,1.4,0c0.6,0,1,0,1.2,0c2.6,0,4.5,0.6,5.6,1.9C197.8,36.7,198.4,38.3,198.4,40.1z
			 M195.4,40.6c0-1.4-0.4-2.5-1.2-3.5c-0.8-0.9-2-1.4-3.7-1.4c-0.3,0-0.7,0-1.3,0.1c0.1,1.4,0.1,2.9,0.1,4.5c0,1.7,0,3.4,0.1,5.1
			c0.5,0.1,0.9,0.1,1.4,0.1c1.5,0,2.7-0.5,3.4-1.4C195.1,43.1,195.4,41.9,195.4,40.6z"/>
		<path fill="#F9F9FA" d="M212.7,47.6h-3.2c-0.8-2.5-1.5-4.1-1.9-4.7c-0.4-0.6-1.2-0.9-2.1-0.9c-0.4,0-0.8,0-1.2,0
			c0,1.8,0,3.7,0.1,5.6h-3c0.1-2.2,0.1-4.6,0.1-7.3c0-2.6,0-4.8-0.1-6.7h1.9c0.2,0,0.7,0,1.3,0c0.7,0,1.3,0,1.9,0
			c3.3,0,4.9,1.1,4.9,3.4c0,1.8-0.9,3-2.8,3.7v0.2c0.7,0.2,1.4,0.8,1.9,1.7C211.1,43.4,211.8,45.1,212.7,47.6z M208.7,37.7
			c0-1.4-0.9-2.1-2.8-2.1c-0.7,0-1.3,0.1-1.8,0.2c0.1,1.1,0.1,2.6,0.1,4.3c0.4,0,0.7,0,1,0C207.6,40.1,208.7,39.3,208.7,37.7z"/>
		<path fill="#F9F9FA" d="M228.1,40.3c0,2.2-0.7,4-2,5.5c-1.3,1.4-3,2.2-5,2.2c-1.9,0-3.5-0.7-4.7-2c-1.3-1.3-1.9-3-1.9-5.1
			c0-2.2,0.7-4,2-5.5c1.3-1.4,3-2.2,5-2.2c1.9,0,3.5,0.7,4.7,2C227.5,36.6,228.1,38.3,228.1,40.3z M225.2,40.6
			c0-1.5-0.4-2.7-1.1-3.6c-0.8-0.9-1.7-1.4-2.8-1.4c-1,0-1.9,0.5-2.7,1.4c-0.7,0.9-1.1,2.1-1.1,3.6c0,1.5,0.4,2.7,1.2,3.6
			c0.8,0.9,1.7,1.4,2.8,1.4c1,0,1.9-0.5,2.7-1.4C224.8,43.2,225.2,42.1,225.2,40.6z"/>
		<path fill="#F9F9FA" d="M234.2,47.6h-3c0.1-2.2,0.1-4.7,0.1-7.3c0-2.6,0-4.8-0.1-6.7h3c-0.1,1.8-0.1,4-0.1,6.7
			C234.1,43,234.1,45.4,234.2,47.6z"/>
		<path fill="#F9F9FA" d="M249.8,40.1c0,2-0.7,3.8-2,5.3c-1.3,1.5-3.1,2.3-5.5,2.3c-1.1,0-2.5,0-4.4-0.1c0.1-2.2,0.1-4.6,0.1-7.3
			c0-2.6,0-4.8-0.1-6.7h1.9c0.3,0,0.8,0,1.4,0c0.6,0,1,0,1.2,0c2.6,0,4.5,0.6,5.6,1.9C249.2,36.7,249.8,38.3,249.8,40.1z
			 M246.8,40.6c0-1.4-0.4-2.5-1.2-3.5c-0.8-0.9-2-1.4-3.7-1.4c-0.3,0-0.7,0-1.3,0.1c0.1,1.4,0.1,2.9,0.1,4.5c0,1.7,0,3.4,0.1,5.1
			c0.5,0.1,0.9,0.1,1.4,0.1c1.5,0,2.7-0.5,3.4-1.4C246.5,43.1,246.8,41.9,246.8,40.6z"/>
		<path fill="#F9F9FA" d="M270.4,47.6H267c0-0.5-0.3-1.8-1-4h-5c-0.7,2.2-1,3.5-1,4h-3.2c0-0.3,0.8-2.6,2.5-6.9
			c1.7-4.3,2.5-6.7,2.5-7.1h4.1c0,0.4,0.8,2.7,2.3,7C269.7,44.9,270.4,47.2,270.4,47.6z M265.5,41.5c-1.2-3.7-1.8-5.7-1.8-6h-0.2
			c0,0.3-0.6,2.3-1.9,6H265.5z"/>
		<path fill="#F9F9FA" d="M283,37.3c0,1.7-0.6,3-1.9,3.8c-1.3,0.8-2.8,1.2-4.7,1.2c-0.3,0-0.6,0-0.7,0c0,1.3,0,3.1,0.1,5.3h-3
			c0.1-2.1,0.1-4.5,0.1-7.3c0-2.6,0-4.8-0.1-6.7h1.9c0.3,0,0.8,0,1.5,0c0.8,0,1.4,0,2,0c1.4,0,2.5,0.3,3.4,0.9
			C282.5,35.1,283,36,283,37.3z M280.2,37.8c0-1.5-1-2.3-3.1-2.3c-0.5,0-1,0.1-1.6,0.2c0.1,1.4,0.1,2.9,0.1,4.6c0.2,0,0.4,0,0.6,0
			C278.9,40.3,280.2,39.5,280.2,37.8z"/>
		<path fill="#F9F9FA" d="M295.8,37.3c0,1.7-0.6,3-1.9,3.8c-1.3,0.8-2.8,1.2-4.7,1.2c-0.3,0-0.6,0-0.7,0c0,1.3,0,3.1,0.1,5.3h-3
			c0.1-2.1,0.1-4.5,0.1-7.3c0-2.6,0-4.8-0.1-6.7h1.9c0.3,0,0.8,0,1.5,0c0.8,0,1.4,0,2,0c1.4,0,2.5,0.3,3.4,0.9
			C295.4,35.1,295.8,36,295.8,37.3z M293.1,37.8c0-1.5-1-2.3-3.1-2.3c-0.5,0-1,0.1-1.6,0.2c0.1,1.4,0.1,2.9,0.1,4.6
			c0.2,0,0.4,0,0.6,0C291.8,40.3,293.1,39.5,293.1,37.8z"/>
		<path fill="#F9F9FA" d="M316.9,40.3c0,2.2-0.7,4-2,5.5c-1.3,1.4-3,2.2-5,2.2c-1.9,0-3.5-0.7-4.7-2c-1.3-1.3-1.9-3-1.9-5.1
			c0-2.2,0.7-4,2-5.5c1.3-1.4,3-2.2,5-2.2c1.9,0,3.5,0.7,4.7,2C316.3,36.6,316.9,38.3,316.9,40.3z M313.9,40.6
			c0-1.5-0.4-2.7-1.1-3.6c-0.8-0.9-1.7-1.4-2.8-1.4c-1,0-1.9,0.5-2.7,1.4c-0.7,0.9-1.1,2.1-1.1,3.6c0,1.5,0.4,2.7,1.2,3.6
			c0.8,0.9,1.7,1.4,2.8,1.4c1,0,1.9-0.5,2.7-1.4C313.6,43.2,313.9,42.1,313.9,40.6z"/>
		<path fill="#F9F9FA" d="M331.5,47.6h-2.7c0-0.3-1-1.8-3-4.7c-2.1-3-3.2-5-3.5-6.1h-0.2c0.2,1.6,0.3,3,0.3,4.3c0,1.8,0,3.9,0.2,6.5
			h-2.6c0.1-2.2,0.2-4.7,0.2-7.3c0-2.6-0.1-4.8-0.2-6.7h3.2c0,0.4,0.9,1.9,2.7,4.5c1.9,2.8,3,4.7,3.2,5.7h0.2
			c-0.2-1.6-0.3-3-0.3-4.3c0-1.9,0-3.9-0.2-6h2.7c-0.1,1.8-0.2,4-0.2,6.7C331.3,43,331.4,45.4,331.5,47.6z"/>
	</g>
</g>
</svg>
