<?xml version="1.0" encoding="utf-8"?>
<!-- Generator: Adobe Illustrator 18.1.1, SVG Export Plug-In . SVG Version: 6.00 Build 0)  -->
<!DOCTYPE svg PUBLIC "-//W3C//DTD SVG 1.1//EN" "http://www.w3.org/Graphics/SVG/1.1/DTD/svg11.dtd">
<svg version="1.1" id="Layer_1" xmlns="http://www.w3.org/2000/svg" xmlns:xlink="http://www.w3.org/1999/xlink" x="0px" y="0px"
	 viewBox="0 0 40 48" enable-background="new 0 0 40 48" xml:space="preserve">
<path fill-rule="evenodd" clip-rule="evenodd" fill="#7D7D7D" d="M7,13v7H4c-2.2,0-4,1.8-4,4v20c0,2.2,1.8,4,4,4h32c2.2,0,4-1.8,4-4
	V24c0-2.2-1.8-4-4-4h-3v-7c0-7.2-5.8-13-13-13C12.8,0,7,5.8,7,13z M12,20v-7c0-4.4,3.6-8,8-8s8,3.6,8,8v7H12z M16,31
	c0-2.2,1.8-4,4-4c2.2,0,4,1.8,4,4c0,1.4-0.7,2.7-1.8,3.4c0,0,0.4,2.4,0.8,5.1c0,0.8-0.7,1.5-1.5,1.5h-3c-0.8,0-1.5-0.7-1.5-1.5
	l0.8-5.1C16.7,33.7,16,32.4,16,31z"/>
</svg>
