<svg xmlns="http://www.w3.org/2000/svg" viewBox="0.4 324.1 612 467.1" enable-background="new 0.4 324.1 612 467.1"><g fill="#fff"><path d="M131.6 424.7h77c8.9 0 17.9.6 27 1.9 9 1.3 17.2 3.8 24.4 7.6 7.2 3.8 13 9.1 17.5 15.9 4.5 6.8 6.7 15.9 6.7 27.1 0 11.7-3.3 21.3-9.8 29-6.5 7.7-15.1 13.2-25.8 16.5v.6c6.8 1 13 2.9 18.5 5.7 5.5 2.8 10.3 6.4 14.3 10.8s7 9.5 9.2 15.3c2.1 5.8 3.2 12.1 3.2 18.7 0 10.9-2.3 20-7 27.3-4.7 7.3-10.7 13.2-18.1 17.6-7.4 4.5-15.7 7.7-24.9 9.6-9.2 1.9-18.4 2.9-27.6 2.9h-84.6V424.7zm45.6 82.5h33c3.5 0 7-.4 10.4-1.2 3.4-.8 6.5-2 9.2-3.8 2.7-1.8 4.9-4.1 6.6-7 1.7-2.9 2.5-6.4 2.5-10.5 0-4.3-.9-7.8-2.8-10.6s-4.2-5-7.1-6.6c-2.9-1.6-6.2-2.7-9.9-3.4-3.7-.7-7.3-1-10.8-1h-30.9v44.1zm0 85.5H218c3.5 0 7-.4 10.6-1.2 3.6-.8 6.9-2.1 9.8-4.1 2.9-1.9 5.3-4.5 7.1-7.6 1.8-3.1 2.8-6.9 2.8-11.4 0-4.9-1.2-8.8-3.6-11.8-2.4-3-5.5-5.3-9.2-6.9-3.7-1.6-7.7-2.6-12-3.2-4.3-.6-8.3-.9-12-.9h-34.4v47.1zm143.5-168H389c16.5 0 32.2 1.9 47.1 5.5 14.9 3.7 27.9 9.7 38.9 17.9 11.1 8.3 19.9 19 26.4 32.2 6.5 13.2 9.8 29.3 9.8 48.1 0 16.7-3.2 31.5-9.5 44.2-6.3 12.7-14.8 23.4-25.5 32.1-10.7 8.7-23 15.2-37 19.7s-28.7 6.7-44.1 6.7h-74.4V424.7zm45.5 164.5h23.6c10.5 0 20.3-1.1 29.3-3.2s16.9-5.7 23.5-10.6c6.6-5 11.8-11.5 15.6-19.5 3.8-8.1 5.7-17.9 5.7-29.6 0-10.1-1.9-18.9-5.7-26.4-3.8-7.5-8.9-13.7-15.3-18.5-6.4-4.9-14-8.5-22.6-10.9-8.7-2.4-17.8-3.6-27.3-3.6h-26.8v122.3z" enable-background="new"/><path d="M604.5 324.1h2.9c1.4 10.1 34.7 258.9-91.1 457l-7.2 10.1h-405L97 781C-30.4 582.9 4.3 334.2 5.8 324.1l44.9 5.8-23.1-2.9 23.1 2.9c0 2.9-31.8 232.8 78.1 416.5h354.3c91.1-151.8 85.4-355.7 81-416.5"/></g></svg>